<svg width="1680" height="140" viewBox="0 0 1680 140" fill="none" xmlns="http://www.w3.org/2000/svg">
<g clip-path="url(#clip0_13_64)">
<path d="M1680 0H0V140H1680V0Z" fill="#BA3D94"/>
<path d="M70 140C108.66 140 140 108.66 140 70C140 31.3401 108.66 0 70 0C31.3401 0 0 31.3401 0 70C0 108.66 31.3401 140 70 140Z" fill="#7D2670"/>
<path fill-rule="evenodd" clip-rule="evenodd" d="M1474.3 140H1500.1C1515.5 129 1529 115.5 1540 100.1V74.3C1525.2 102.2 1502.2 125.2 1474.3 140ZM1441 140C1488.6 126.1 1526.1 88.6 1540 41V0H1532.2C1532.2 73 1473 132.2 1400 132.2V140H1441ZM1518.6 0C1518.6 65.5 1465.5 118.6 1400 118.6V105C1458 105 1505 58 1505 0H1518.6ZM1400 91.4C1450.5 91.4 1491.4 50.5 1491.4 0H1477.8C1477.8 43 1443 77.8 1400 77.8V91.4ZM1464.2 0C1464.2 35.4 1435.5 64.2 1400 64.2V50.6C1427.9 50.6 1450.6 28 1450.6 0H1464.2ZM1400 36.9C1420.4 36.9 1436.9 20.4 1436.9 0H1423.3C1423.3 12.9 1412.9 23.3 1400 23.3V36.9Z" fill="#7D2670"/>
<path fill-rule="evenodd" clip-rule="evenodd" d="M1120 140H1260V0H1190H1120V69.5V140ZM1120 69.5L1190 0L1260 69.5L1190 139L1120 69.5Z" fill="#7D2670"/>
<path fill-rule="evenodd" clip-rule="evenodd" d="M140 70L210 140L280 70L210 0L140 70ZM210 105C190.7 105 175 89.3 175 70C175 50.7 190.7 35 210 35C229.3 35 245 50.7 245 70C245 89.3 229.3 105 210 105Z" fill="#ABF62D"/>
<path d="M1277.5 70C1287.16 70 1295 62.165 1295 52.5C1295 42.835 1287.16 35 1277.5 35C1267.84 35 1260 42.835 1260 52.5C1260 62.165 1267.84 70 1277.5 70Z" fill="#D6A3FB"/>
<path d="M1277.5 105C1287.16 105 1295 97.165 1295 87.5C1295 77.835 1287.16 70 1277.5 70C1267.84 70 1260 77.835 1260 87.5C1260 97.165 1267.84 105 1277.5 105Z" fill="#D6A3FB"/>
<path d="M1312.5 70C1322.16 70 1330 62.165 1330 52.5C1330 42.835 1322.16 35 1312.5 35C1302.84 35 1295 42.835 1295 52.5C1295 62.165 1302.84 70 1312.5 70Z" fill="#D6A3FB"/>
<path d="M1312.5 105C1322.16 105 1330 97.165 1330 87.5C1330 77.835 1322.16 70 1312.5 70C1302.84 70 1295 77.835 1295 87.5C1295 97.165 1302.84 105 1312.5 105Z" fill="#D6A3FB"/>
<path d="M1347.5 70C1357.16 70 1365 62.165 1365 52.5C1365 42.835 1357.16 35 1347.5 35C1337.84 35 1330 42.835 1330 52.5C1330 62.165 1337.84 70 1347.5 70Z" fill="#D6A3FB"/>
<path d="M1347.5 105C1357.16 105 1365 97.165 1365 87.5C1365 77.835 1357.16 70 1347.5 70C1337.84 70 1330 77.835 1330 87.5C1330 97.165 1337.84 105 1347.5 105Z" fill="#D6A3FB"/>
<path d="M1382.5 70C1392.16 70 1400 62.165 1400 52.5C1400 42.835 1392.16 35 1382.5 35C1372.84 35 1365 42.835 1365 52.5C1365 62.165 1372.84 70 1382.5 70Z" fill="#D6A3FB"/>
<path d="M1382.5 105C1392.16 105 1400 97.165 1400 87.5C1400 77.835 1392.16 70 1382.5 70C1372.84 70 1365 77.835 1365 87.5C1365 97.165 1372.84 105 1382.5 105Z" fill="#D6A3FB"/>
<path fill-rule="evenodd" clip-rule="evenodd" d="M700 140V0H560V140H700ZM612.5 105C602.9 105 595 112.8 595 122.5C595 112.9 587.2 105 577.5 105C587.1 105 595 97.2 595 87.5C595 97.2 602.8 105 612.5 105ZM560 87.5C560 97.2 567.8 105 577.5 105C567.8 105 560 112.8 560 122.5C560 132.2 567.8 140 577.5 140C587.2 140 595 132.2 595 122.5C595 132.2 602.8 140 612.5 140C622.2 140 630 132.2 630 122.5C630 112.8 622.2 105 612.5 105C622.2 105 630 97.2 630 87.5C630 77.9 622.2 70.1 612.6 70C622.2 69.9 630 62.1 630 52.5C630 42.8 622.2 35 612.5 35C602.8 35 595 42.8 595 52.5C595 42.8 587.2 35 577.5 35C567.8 35 560 42.8 560 52.5C560 62.1 567.8 69.9 577.4 70C567.8 70.1 560 77.9 560 87.5ZM612.4 70C602.8 70.1 595 77.9 595 87.5C595 77.9 587.2 70.1 577.6 70C587.2 69.9 595 62.1 595 52.5C595 62.1 602.8 69.9 612.4 70ZM612.5 35C602.8 35 595 27.2 595 17.5C595 27.2 587.2 35 577.5 35C567.8 35 560 27.2 560 17.5C560 7.8 567.8 0 577.5 0C587.2 0 595 7.8 595 17.5C595 7.8 602.8 0 612.5 0C622.2 0 630 7.8 630 17.5C630 27.2 622.2 35 612.5 35Z" fill="#7D2670"/>
<path d="M682.5 35C692.165 35 700 27.165 700 17.5C700 7.83502 692.165 0 682.5 0C672.835 0 665 7.83502 665 17.5C665 27.165 672.835 35 682.5 35Z" fill="#D6A3FB"/>
<path d="M647.5 35C657.165 35 665 27.165 665 17.5C665 7.83502 657.165 0 647.5 0C637.835 0 630 7.83502 630 17.5C630 27.165 637.835 35 647.5 35Z" fill="#D6A3FB"/>
<path d="M682.5 70C692.165 70 700 62.165 700 52.5C700 42.835 692.165 35 682.5 35C672.835 35 665 42.835 665 52.5C665 62.165 672.835 70 682.5 70Z" fill="#D6A3FB"/>
<path d="M647.5 70C657.165 70 665 62.165 665 52.5C665 42.835 657.165 35 647.5 35C637.835 35 630 42.835 630 52.5C630 62.165 637.835 70 647.5 70Z" fill="#D6A3FB"/>
<path d="M682.5 105C692.165 105 700 97.165 700 87.5C700 77.835 692.165 70 682.5 70C672.835 70 665 77.835 665 87.5C665 97.165 672.835 105 682.5 105Z" fill="#D6A3FB"/>
<path d="M647.5 105C657.165 105 665 97.165 665 87.5C665 77.835 657.165 70 647.5 70C637.835 70 630 77.835 630 87.5C630 97.165 637.835 105 647.5 105Z" fill="#D6A3FB"/>
<path d="M682.5 140C692.165 140 700 132.165 700 122.5C700 112.835 692.165 105 682.5 105C672.835 105 665 112.835 665 122.5C665 132.165 672.835 140 682.5 140Z" fill="#D6A3FB"/>
<path d="M647.5 140C657.165 140 665 132.165 665 122.5C665 112.835 657.165 105 647.5 105C637.835 105 630 112.835 630 122.5C630 132.165 637.835 140 647.5 140Z" fill="#D6A3FB"/>
<path fill-rule="evenodd" clip-rule="evenodd" d="M560 119.6V100.2H420V119.6H560ZM560 20.4V39.8H420V20.4H560ZM560 60.3V79.7H420V60.3H560Z" fill="#7D2670"/>
<path fill-rule="evenodd" clip-rule="evenodd" d="M980 70C980 108.7 1011.3 140 1050 140C1088.7 140 1120 108.7 1120 70C1120 31.3 1088.7 0 1050 0C1011.3 0 980 31.3 980 70ZM1015 70C1015 89.3 1030.7 105 1050 105C1069.3 105 1085 89.3 1085 70C1085 50.7 1069.3 35 1050 35C1030.7 35 1015 50.7 1015 70Z" fill="#ABF62D"/>
<path fill-rule="evenodd" clip-rule="evenodd" d="M840 20.4V39.8H980V20.4H840ZM840 79.7V60.3H980V79.7H840ZM840 119.6V100.2H980V119.6H840Z" fill="#7D2670"/>
<path d="M1540 140V0L1610 70L1540 140Z" fill="#7D2670"/>
<path d="M1680 0V140L1610 70L1680 0Z" fill="#7D2670"/>
<path d="M770.09 -0.00948924L700.087 69.9934L770.09 139.996L840.092 69.9934L770.09 -0.00948924Z" fill="#7D2670"/>
<path d="M420 0H350V70H420V0Z" fill="#7D2670"/>
<path d="M350 70H280V140H350V70Z" fill="#7D2670"/>
</g>
<defs>
<clipPath id="clip0_13_64">
<rect width="1680" height="140" fill="white"/>
</clipPath>
</defs>
</svg>
