<svg width="1680" height="141" viewBox="0 0 1680 141" fill="none" xmlns="http://www.w3.org/2000/svg">
<g clip-path="url(#clip0_12_2)">
<path d="M1680 141V1L0 1V141L1680 141Z" fill="#BA3D94"/>
<path d="M840 141L980 141V71L840 71V141Z" fill="#8F2980"/>
<path d="M910 71L980 71V1L910 1V71Z" fill="#7D2670"/>
<path fill-rule="evenodd" clip-rule="evenodd" d="M1540 21.4165V40.861H1680V21.4165H1540ZM1540 80.7218V61.2774H1680V80.7218H1540ZM1540 120.583V101.139H1680V120.583H1540Z" fill="#7D2670"/>
<path fill-rule="evenodd" clip-rule="evenodd" d="M580.417 141H599.861V1L580.417 1V141ZM639.722 141H620.278V1L639.722 1.00001V141ZM679.583 141H660.139V1.00001L679.584 1.00001L679.583 141Z" fill="#7D2670"/>
<path fill-rule="evenodd" clip-rule="evenodd" d="M140.025 1V141C178.865 139.97 210.025 109.024 210.025 71C210.025 32.9759 178.865 2.03025 140.025 1Z" fill="#7D2670"/>
<path d="M1050 123.418C1050 113.753 1042.16 105.918 1032.5 105.918C1022.84 105.918 1015 113.753 1015 123.418C1015 133.083 1022.84 140.918 1032.5 140.918C1042.16 140.918 1050 133.083 1050 123.418Z" fill="#D6A3FB"/>
<path d="M1085 123.418C1085 113.753 1077.16 105.918 1067.5 105.918C1057.84 105.918 1050 113.753 1050 123.418C1050 133.083 1057.84 140.918 1067.5 140.918C1077.16 140.918 1085 133.083 1085 123.418Z" fill="#D6A3FB"/>
<path d="M1050 88.4165C1050 78.7515 1042.16 70.9165 1032.5 70.9165C1022.84 70.9165 1015 78.7515 1015 88.4165C1015 98.0815 1022.84 105.917 1032.5 105.917C1042.16 105.917 1050 98.0815 1050 88.4165Z" fill="#D6A3FB"/>
<path d="M1085 88.4165C1085 78.7515 1077.16 70.9165 1067.5 70.9165C1057.84 70.9165 1050 78.7515 1050 88.4165C1050 98.0815 1057.84 105.917 1067.5 105.917C1077.16 105.917 1085 98.0815 1085 88.4165Z" fill="#D6A3FB"/>
<path d="M1050 53.417C1050 43.752 1042.16 35.917 1032.5 35.917C1022.84 35.917 1015 43.752 1015 53.417C1015 63.082 1022.84 70.917 1032.5 70.917C1042.16 70.917 1050 63.082 1050 53.417Z" fill="#D6A3FB"/>
<path d="M1085 53.417C1085 43.752 1077.16 35.917 1067.5 35.917C1057.84 35.917 1050 43.752 1050 53.417C1050 63.082 1057.84 70.917 1067.5 70.917C1077.16 70.917 1085 63.082 1085 53.417Z" fill="#D6A3FB"/>
<path d="M1050 18.417C1050 8.75201 1042.16 0.916992 1032.5 0.916992C1022.84 0.916992 1015 8.75201 1015 18.417C1015 28.082 1022.84 35.917 1032.5 35.917C1042.16 35.917 1050 28.082 1050 18.417Z" fill="#D6A3FB"/>
<path d="M1085 18.417C1085 8.75201 1077.16 0.916992 1067.5 0.916992C1057.84 0.916992 1050 8.75201 1050 18.417C1050 28.082 1057.84 35.917 1067.5 35.917C1077.16 35.917 1085 28.082 1085 18.417Z" fill="#D6A3FB"/>
<path fill-rule="evenodd" clip-rule="evenodd" d="M700 141H840V1.00001L700 1V141ZM770 105.027L805 70.0273L770 35.0273L735 70.0273L770 105.027Z" fill="#7D2670"/>
<path d="M490 1C451.34 1 420 32.3401 420 71C420 109.66 451.34 141 490 141C528.66 141 560 109.66 560 71C560 32.3401 528.66 1 490 1Z" fill="#7D2670"/>
<path d="M1540 70.9934V0.993652L1470 0.993652V70.9934H1540Z" fill="#7D2670"/>
<path d="M1470 140.994V70.9941H1400V140.994H1470Z" fill="#7D2670"/>
<path fill-rule="evenodd" clip-rule="evenodd" d="M1190 1C1151.34 0.999998 1120 32.3401 1120 71C1120 109.66 1151.34 141 1190 141C1228.66 141 1260 109.66 1260 71C1260 32.3401 1228.66 1 1190 1ZM1190 35.9998C1170.67 35.9998 1155 51.6698 1155 70.9998C1155 90.3297 1170.67 106 1190 106C1209.33 106 1225 90.3297 1225 70.9998C1225 51.6698 1209.33 35.9998 1190 35.9998Z" fill="#ABF62D"/>
<path fill-rule="evenodd" clip-rule="evenodd" d="M1330.02 141H1400.02V71V1.00001L1330.02 1L1260.02 1V71V141H1330.02ZM1330.02 141C1291.36 141 1260.02 109.66 1260.02 71C1260.02 32.3401 1291.36 1 1330.02 1C1368.68 1 1400.02 32.3401 1400.02 71C1400.02 109.66 1368.68 141 1330.02 141Z" fill="#7D2670"/>
<path d="M17.4999 70.9995C27.1649 70.9995 34.9999 63.1645 34.9999 53.4995C34.9999 43.8345 27.1649 35.9995 17.4999 35.9995C7.83493 35.9995 -9.15527e-05 43.8345 -9.15527e-05 53.4995C-9.15527e-05 63.1645 7.83493 70.9995 17.4999 70.9995Z" fill="#D6A3FB"/>
<path d="M17.4999 106C27.1649 106 34.9999 98.1645 34.9999 88.4995C34.9999 78.8345 27.1649 70.9995 17.4999 70.9995C7.83493 70.9995 -9.15527e-05 78.8345 -9.15527e-05 88.4995C-9.15527e-05 98.1645 7.83493 106 17.4999 106Z" fill="#D6A3FB"/>
<path d="M52.5 70.9995C62.165 70.9995 70 63.1645 70 53.4995C70 43.8345 62.165 35.9995 52.5 35.9995C42.835 35.9995 35 43.8345 35 53.4995C35 63.1645 42.835 70.9995 52.5 70.9995Z" fill="#D6A3FB"/>
<path d="M52.5 106C62.165 106 70 98.1645 70 88.4995C70 78.8345 62.165 70.9995 52.5 70.9995C42.835 70.9995 35 78.8345 35 88.4995C35 98.1645 42.835 106 52.5 106Z" fill="#D6A3FB"/>
<path d="M87.5 70.9995C97.165 70.9995 105 63.1645 105 53.4995C105 43.8345 97.165 35.9995 87.5 35.9995C77.835 35.9995 70 43.8345 70 53.4995C70 63.1645 77.835 70.9995 87.5 70.9995Z" fill="#D6A3FB"/>
<path d="M87.5 106C97.165 106 105 98.1645 105 88.4995C105 78.8345 97.165 70.9995 87.5 70.9995C77.835 70.9995 70 78.8345 70 88.4995C70 98.1645 77.835 106 87.5 106Z" fill="#D6A3FB"/>
<path d="M122.5 70.9995C132.165 70.9995 140 63.1645 140 53.4995C140 43.8345 132.165 35.9995 122.5 35.9995C112.835 35.9995 105 43.8345 105 53.4995C105 63.1645 112.835 70.9995 122.5 70.9995Z" fill="#D6A3FB"/>
<path d="M122.5 106C132.165 106 140 98.1645 140 88.4995C140 78.8345 132.165 70.9995 122.5 70.9995C112.835 70.9995 105 78.8345 105 88.4995C105 98.1645 112.835 106 122.5 106Z" fill="#D6A3FB"/>
<path d="M280 141V1L350 71L280 141Z" fill="#7D2670"/>
<path d="M420 1V141L350 71L420 1Z" fill="#ABF62D"/>
</g>
<defs>
<clipPath id="clip0_12_2">
<rect width="1680" height="141" fill="white"/>
</clipPath>
</defs>
</svg>
